<?xml version="1.0" encoding="utf-8"?>
<!-- Generator: Adobe Illustrator 23.0.4, SVG Export Plug-In . SVG Version: 6.00 Build 0)  -->
<svg version="1.1" id="Layer_1" xmlns="http://www.w3.org/2000/svg" xmlns:xlink="http://www.w3.org/1999/xlink" x="0px" y="0px"
	 viewBox="0 0 276 238" style="enable-background:new 0 0 276 238;" xml:space="preserve">
<style type="text/css">
	.st0{stroke:#ffff;stroke-width:5.7854;stroke-miterlimit:10;}
	.st1{fill:none;stroke:#ffff;stroke-width:8.3243;stroke-miterlimit:10;}
</style>
<g>
	<g>
		<path class="st0" d="M14.1,188.8c-0.5,0-0.8-0.3-0.8-0.9V43.9c0-0.6,0.3-0.9,0.9-0.9h10.6c2.7,0,4.9,0.4,6.5,1.2
			c1.6,0.8,2.7,1.8,3.5,2.9c0.8,1.1,1.2,2.3,1.4,3.5c0.2,1.2,0.3,2.2,0.3,3v44.4c0,1.5,0,3.1,0.1,4.6c0,1.6,0,3.1-0.2,4.6
			c-0.1,1.5-0.4,2.8-0.9,4.1c-0.4,1.2-1.2,2.3-2.2,3.1c1,0.9,1.7,1.9,2.2,3c0.4,1.1,0.7,2.3,0.9,3.6c0.1,1.3,0.2,2.6,0.2,4
			c0,1.3-0.1,2.6-0.1,3.9v49.2c0,0.8-0.1,1.8-0.2,3c-0.1,1.2-0.6,2.4-1.4,3.5c-0.8,1.1-2,2.1-3.7,2.9c-1.7,0.8-4,1.2-6.9,1.2H14.1z
			 M18.1,47.8v64.3h7.5c1.9,0,3.3-0.4,4.1-1.2c0.9-0.8,1.4-1.8,1.7-2.9c0.3-1.2,0.4-2.4,0.3-3.8c-0.1-1.4-0.1-2.7-0.1-3.9V53.8
			c0-1.7-0.5-3.1-1.4-4.2c-0.9-1.2-2.7-1.7-5.4-1.7L18.1,47.8L18.1,47.8z M18.1,117v67h6.7c2.7,0,4.5-0.6,5.4-1.7
			c0.9-1.2,1.4-2.6,1.4-4.2v-49.2c0-1.2,0-2.4,0.1-3.9c0.1-1.4,0-2.7-0.3-3.9c-0.3-1.2-0.9-2.1-1.7-2.9c-0.9-0.8-2.2-1.2-4.1-1.2
			L18.1,117L18.1,117z"/>
		<path class="st0" d="M115.4,187.8c0,0.6-0.3,1-0.8,1h-1.8c-0.9,0-1.5-0.2-1.8-0.5c-0.3-0.4-0.5-0.9-0.6-1.7l-1.7-24.7H94.3
			l-1.7,24.7c-0.1,0.8-0.3,1.4-0.5,1.7c-0.3,0.4-0.9,0.5-1.7,0.5h-2c-0.5,0-0.8-0.3-0.8-1L98.2,44.5c0.1-0.9,0.5-1.3,1.1-1.4
			c0.7-0.1,1.4-0.1,2.1-0.1h0.2c0.9,0,1.7,0.1,2.2,0.2s0.8,0.6,0.9,1.4L115.4,187.8z M94.6,156.9h13.8L101.5,60L94.6,156.9z"/>
		<path class="st0" d="M189.6,187.9c0,0.6-0.3,0.9-0.9,0.9h-0.9c-0.9,0-1.6-0.2-2.2-0.7c-0.6-0.5-0.9-1.1-0.9-1.9v-56
			c0-1.7-0.5-3.1-1.4-4.2s-2.7-1.7-5.4-1.7h-6.7v61.9c0,0.8-0.3,1.4-0.9,1.9c-0.6,0.5-1.3,0.7-2.2,0.7h-1c-0.5,0-0.8-0.3-0.8-0.9
			V43.9c0-0.6,0.3-0.9,0.9-0.9H178c2.5,0,4.6,0.3,6.1,1c1.5,0.7,2.7,1.5,3.5,2.5c0.8,1,1.4,2.2,1.6,3.5c0.3,1.3,0.4,2.5,0.4,3.7
			v56.1c0,2.5-0.2,4.8-0.6,6.9s-1.4,3.7-2.9,5c1.4,1.1,2.4,2.4,2.9,3.8c0.5,1.4,0.7,3,0.7,4.7L189.6,187.9L189.6,187.9z M171.3,47.8
			v71.7h7.5c1.4,0,2.6-0.3,3.4-0.9c0.8-0.6,1.4-1.3,1.8-2.3c0.4-0.9,0.6-2,0.8-3.1c0.1-1.2,0.2-2.3,0.2-3.6V53.8
			c0-1.7-0.5-3.1-1.4-4.2c-0.9-1.2-2.7-1.7-5.4-1.7L171.3,47.8L171.3,47.8z"/>
		<path class="st0" d="M261,43c0.7,0,1.2,0.1,1.6,0.3c0.3,0.2,0.5,0.6,0.4,1.2L246.8,184H261c0.9,0,1.6,0.2,2.1,0.6
			c0.5,0.4,0.8,1.1,0.8,2.1v0.8c0,0.4,0,0.8,0,1s-0.2,0.3-0.5,0.3h-18c-1,0-1.9-0.1-2.7-0.4c-0.8-0.3-1.1-0.9-0.9-1.8L258,47.8
			h-12.5c-0.9,0-1.6-0.2-2.1-0.6c-0.5-0.4-0.8-1.1-0.8-2.1v-0.8c0-0.4,0-0.8,0-1s0.2-0.3,0.5-0.3L261,43L261,43z"/>
	</g>
</g>
<g>
	<line class="st1" x1="66.3" y1="10.8" x2="66.3" y2="227.9"/>
	<line class="st1" x1="145.7" y1="10.8" x2="145.7" y2="227.9"/>
	<line class="st1" x1="218.2" y1="10.8" x2="218.2" y2="227.9"/>
</g>
</svg>
