<?xml version="1.0" encoding="utf-8"?>
<!-- Generator: Adobe Illustrator 16.0.0, SVG Export Plug-In . SVG Version: 6.00 Build 0)  -->
<!DOCTYPE svg PUBLIC "-//W3C//DTD SVG 1.1//EN" "http://www.w3.org/Graphics/SVG/1.1/DTD/svg11.dtd">
<svg version="1.1" xmlns="http://www.w3.org/2000/svg" xmlns:xlink="http://www.w3.org/1999/xlink" x="0px" y="0px"
	 width="430.478px" height="720px" viewBox="0 0 430.478 720" enable-background="new 0 0 430.478 720" xml:space="preserve">
<g id="Layer_1">
	<g>
		<path stroke="#ffff" stroke-width="5.7854" stroke-miterlimit="10" d="M104.107,378.806c-0.508,0-0.76-0.288-0.76-0.867V233.883
			c0-0.578,0.288-0.868,0.868-0.868h10.63c2.747,0,4.898,0.417,6.455,1.248c1.553,0.832,2.711,1.809,3.471,2.929
			c0.76,1.122,1.229,2.297,1.41,3.525c0.18,1.23,0.271,2.243,0.271,3.038v44.366c0,1.519,0.017,3.055,0.054,4.61
			c0.035,1.556-0.019,3.075-0.162,4.556c-0.146,1.483-0.435,2.838-0.868,4.068c-0.434,1.23-1.158,2.278-2.17,3.146
			c1.012,0.868,1.736,1.862,2.17,2.983c0.434,1.122,0.722,2.332,0.868,3.634c0.144,1.302,0.197,2.622,0.162,3.959
			c-0.037,1.339-0.054,2.622-0.054,3.851v49.248c0,0.796-0.073,1.789-0.217,2.982c-0.146,1.193-0.616,2.351-1.41,3.472
			c-0.797,1.122-2.026,2.098-3.688,2.929c-1.664,0.832-3.979,1.247-6.942,1.247H104.107z M108.12,237.788v64.326h7.485
			c1.879,0,3.254-0.396,4.122-1.193c0.868-0.796,1.445-1.772,1.735-2.929c0.288-1.156,0.396-2.422,0.325-3.796
			c-0.073-1.373-0.108-2.675-0.108-3.905v-46.536c0-1.663-0.471-3.073-1.41-4.231c-0.941-1.156-2.749-1.735-5.424-1.735H108.12z
			 M108.12,306.995v67.038h6.726c2.675,0,4.482-0.579,5.424-1.735c0.939-1.156,1.41-2.566,1.41-4.23v-49.248
			c0-1.156,0.035-2.441,0.108-3.851c0.071-1.41-0.037-2.694-0.325-3.851c-0.29-1.156-0.867-2.132-1.735-2.929
			c-0.868-0.795-2.243-1.193-4.122-1.193H108.12z"/>
		<path stroke="#ffff" stroke-width="5.7854" stroke-miterlimit="10" d="M205.421,377.83c0,0.65-0.255,0.976-0.76,0.976h-1.844
			c-0.868,0-1.465-0.18-1.79-0.542c-0.325-0.361-0.525-0.939-0.597-1.735l-1.735-24.733h-14.428l-1.735,24.733
			c-0.073,0.796-0.254,1.374-0.542,1.735c-0.291,0.362-0.868,0.542-1.736,0.542h-1.952c-0.507,0-0.759-0.325-0.759-0.976
			l10.63-143.296c0.071-0.868,0.451-1.337,1.14-1.41c0.686-0.071,1.391-0.108,2.115-0.108h0.217c0.938,0,1.682,0.054,2.224,0.163
			s0.849,0.561,0.922,1.356L205.421,377.83z M184.594,346.914h13.776l-6.834-96.868L184.594,346.914z"/>
		<path stroke="#ffff" stroke-width="5.7854" stroke-miterlimit="10" d="M279.615,377.938c0,0.579-0.289,0.867-0.867,0.867h-0.868
			c-0.868,0-1.591-0.233-2.169-0.705c-0.579-0.47-0.868-1.102-0.868-1.898v-55.973c0-1.664-0.47-3.074-1.41-4.23
			c-0.94-1.156-2.748-1.736-5.424-1.736h-6.726v61.939c0,0.797-0.289,1.429-0.868,1.898c-0.578,0.472-1.302,0.705-2.169,0.705
			h-0.977c-0.506,0-0.76-0.288-0.76-0.867V233.883c0-0.578,0.29-0.868,0.868-0.868h10.631c2.531,0,4.556,0.326,6.074,0.976
			c1.519,0.651,2.694,1.502,3.525,2.549c0.832,1.049,1.374,2.207,1.628,3.471c0.253,1.266,0.379,2.514,0.379,3.743v56.082
			c0,2.532-0.217,4.827-0.65,6.888s-1.41,3.743-2.929,5.044c1.446,1.085,2.404,2.351,2.874,3.797
			c0.471,1.447,0.705,3.001,0.705,4.665V377.938z M261.283,237.788v71.702h7.484c1.447,0,2.567-0.288,3.363-0.868
			c0.795-0.579,1.392-1.338,1.79-2.278c0.397-0.939,0.65-1.989,0.759-3.146c0.108-1.156,0.163-2.349,0.163-3.58v-55.865
			c0-1.663-0.47-3.073-1.41-4.231c-0.94-1.156-2.748-1.735-5.424-1.735H261.283z"/>
		<path stroke="#ffff" stroke-width="5.7854" stroke-miterlimit="10" d="M350.991,233.015c0.722,0,1.247,0.091,1.573,0.271
			c0.325,0.182,0.45,0.597,0.379,1.248l-16.162,139.5h14.21c0.868,0,1.555,0.2,2.061,0.597c0.506,0.397,0.76,1.103,0.76,2.115v0.759
			c0,0.435,0,0.76,0,0.977s-0.181,0.325-0.542,0.325h-18.008c-1.013,0-1.917-0.145-2.711-0.434
			c-0.797-0.288-1.085-0.904-0.868-1.844l16.271-138.74h-12.475c-0.868,0-1.557-0.198-2.062-0.597
			c-0.507-0.396-0.759-1.102-0.759-2.115v-0.759c0-0.434,0-0.759,0-0.976c0-0.217,0.18-0.326,0.542-0.326H350.991z"/>
	</g>
</g>
<g id="Layer_2">
	
		<line fill="none" stroke="#ffff" stroke-width="8.3243" stroke-miterlimit="10" x1="156.285" y1="200.775" x2="156.285" y2="417.917"/>
	
		<line fill="none" stroke="#ffff" stroke-width="8.3243" stroke-miterlimit="10" x1="235.736" y1="200.775" x2="235.736" y2="417.917"/>
	
		<line fill="none" stroke="#ffff" stroke-width="8.3243" stroke-miterlimit="10" x1="308.246" y1="200.775" x2="308.246" y2="417.917"/>
</g>
</svg>

